<svg width="277" height="183" viewBox="0 0 277 183" fill="none" xmlns="http://www.w3.org/2000/svg">
<g clip-path="url(#clip0_1_140)">
<path d="M120.036 56.625L113.224 76.4597L120.036 99.1278L114.643 110.179L137.067 121.796V140.214L146.15 146.164L145.582 157.498L147.853 165.716L146.433 176.483L167.721 183L267.633 177.616L271.607 163.732L265.93 146.164L277 130.58L269.62 111.879L272.175 89.7772L270.188 62.2921L244.642 56.625L230.166 50.3913L206.891 55.4916L182.765 52.3748L154.665 60.592L143.027 58.0418L132.809 52.3748L120.036 56.625Z" fill="black"/>
<path d="M50.6798 5.13434C50.2569 5.71521 49.5133 5.87388 48.0827 5.87388H40.7142C38.54 8.67907 35.6789 11.8554 33.2379 13.8644H39.7577L42.4087 10.3707L49.4593 15.3463C49.1954 15.7175 48.6106 16.0887 47.6569 16.2984V37.836C47.6569 37.9947 45.3238 39.6891 40.5013 39.6891C47.8159 40.6412 50.3619 43.7637 50.3619 46.4102C50.3619 48.5268 48.6646 50.38 46.5443 50.38C45.7495 50.38 44.9009 50.1165 44.0522 49.4817C42.5677 46.0419 39.7037 42.0721 36.5758 39.7968L36.8398 39.4256C38.0603 39.4794 39.173 39.5304 40.2317 39.6381V37.6801H31.8045C31.8045 38.5274 30.9018 39.1621 29.9481 39.6381L36.7348 43.8175C36.5758 44.0811 36.2579 44.2397 35.835 44.2397C35.6221 44.2397 35.3581 44.1859 35.0402 44.1349C31.0636 46.8324 23.2722 49.6914 16.7524 50.3261L16.4345 49.6914C20.57 47.7335 25.0746 43.7637 27.7796 40.4315C26.613 40.695 26.1362 40.695 24.4927 40.695V34.5548C22.4775 36.6176 19.1906 39.6353 14.3142 43.4463C14.0502 44.1887 13.4144 44.7158 12.7786 44.8744L9.22778 36.0367C9.97144 35.9829 10.9791 35.8242 12.2507 35.6655V19.6845H10.2354C10.0765 33.7614 9.75856 43.7099 0.587671 50.38L0.00579834 49.6914C2.97477 43.7127 3.29267 36.5666 3.29267 27.5701V19.6845H0.264093L0.0512128 18.8372H13.7806L17.4393 13.5981L24.0641 18.9421C23.6412 19.5258 22.8464 19.6845 21.4131 19.6845H19.3467V34.7134C20.9901 34.5009 22.7386 34.2374 24.4899 33.9201V10.8495L31.8584 13.7596C31.9123 11.6968 31.9123 8.41555 31.9123 5.87388H21.9467L22.2106 6.0864C21.7877 6.66727 20.9901 6.82878 19.6135 6.82878H2.06648L1.8536 5.98156H12.404L15.9037 0.847222L20.939 5.02666H39.8655L43.6832 0L50.6798 5.13434ZM40.2374 14.7116H31.8101V21.4866H40.2374V14.7116ZM31.8073 22.331V29.2107H40.2345V22.331H31.8073ZM31.8073 36.8329H40.2345V30.058H31.8073V36.8329Z" fill="#F15A24"/>
<path d="M95.1604 1.58677L102.37 6.93079C101.998 7.35298 101.311 7.82901 100.25 8.04152V47.6258C100.25 47.7845 98.3422 49.9011 92.7733 49.9011V45.1918H62.9814V47.3623C62.9814 47.6258 61.9737 50.431 55.5589 50.431V2.17047L63.5632 5.39785H92.2425L95.1575 1.58677H95.1604ZM62.9814 44.3474H92.7733V6.24507H62.9814V44.3474ZM92.4554 17.0408C92.0325 17.6217 91.2888 17.7832 89.9122 17.7832H81.3771V26.3036L83.7642 23.181L90.443 27.7855C90.179 28.1567 89.5432 28.5789 88.5355 28.7914V39.1111C88.5355 39.1649 86.6792 40.6468 81.8568 40.6468V37.7368H73.7985V38.8475C73.7985 38.9524 72.8959 41.1767 67.2787 41.1767V23.6599L74.0653 26.3602H74.3293V17.786H63.5661L63.3532 16.9388H74.3265V8.04719L83.1795 8.89441C83.1255 9.52912 82.7026 9.90031 81.3771 10.059V16.9388H83.0744L86.3613 12.5468L92.4582 17.0464L92.4554 17.0408ZM73.7957 36.8867H81.8539V27.2018H73.7957V36.8867Z" fill="#F15A24"/>
<path d="M107.348 18.1685C107.899 18.9619 108.748 19.1291 109.738 19.1291C110.454 19.1291 111.742 19.0186 112.429 18.8542C112.705 17.5933 112.787 16.6073 112.787 16.0859C112.787 14.8533 112.347 14.8533 111.578 14.8533C111.331 14.8533 111.055 14.8816 110.726 15.0177L110.644 14.8816C110.809 13.8956 111.853 13.2637 113.088 13.2637C114.873 13.2637 116.684 13.9494 116.684 14.7173C116.684 15.403 116.244 15.7855 116.054 16.6073C115.972 16.9643 115.753 17.6217 115.614 18.0864C116.025 17.9503 118.387 16.9359 118.469 15.675C121.435 15.675 122.423 16.4146 122.423 17.3751C122.423 18.279 121.6 18.6899 119.65 19.4578C118.523 19.897 116.079 20.6649 114.845 20.9369C114.104 23.4304 111.439 29.3808 110.122 31.4917C109.764 32.0386 109.216 32.4778 108.722 32.4778C108.336 32.4778 106.911 32.3418 106.911 30.5028C106.911 29.9276 106.965 29.1059 107.624 28.5024C109.355 26.9128 111.331 23.7052 111.881 21.3761C111.745 21.4044 111.002 21.4582 110.618 21.4582C106.747 21.4582 107.076 18.5794 107.104 18.3329L107.351 18.1685H107.348ZM124.566 22.7475C123.99 22.5548 123.167 22.4471 122.259 22.4471C121.106 22.4471 119.843 22.6115 118.773 23.0507L118.745 22.6398C120.201 21.0785 122.974 20.1463 125.089 20.1463C127.203 20.1463 129.593 20.8037 129.593 22.722C129.593 23.1328 129.511 24.0651 128.276 24.0651C128.194 24.0651 128.111 24.0367 128.001 24.0367C127.45 23.9829 126.269 23.4615 125.338 23.4615C125.228 23.4615 125.12 23.4899 125.037 23.4899C122.787 23.8186 122.622 25.2438 122.622 26.8079C122.622 27.5758 122.841 28.7829 123.034 29.5224L123.17 30.0693C123.692 30.2053 128.551 31.5229 128.551 34.5094C128.551 35.4955 127.728 36.0169 126.82 36.0169C126.108 36.0452 125.063 34.5378 123.388 33.4667C123.553 35.0025 123.031 37.1389 118.282 37.1389C115.344 37.1389 113.119 35.6598 113.119 33.138C113.119 30.398 116.085 29.4374 118.39 29.4374C118.884 29.4374 119.378 29.4913 119.818 29.5196C119.764 28.8339 119.707 27.7373 119.707 27.0261C119.761 24.3938 122.068 23.3255 124.623 22.8325L124.566 22.7503V22.7475ZM120.008 32.0103C119.131 31.6277 118.387 31.4067 117.51 31.4067C115.918 31.4067 114.901 31.9281 114.901 32.832C114.901 33.8464 116.054 34.3111 118.004 34.3111C119.542 34.3111 120.008 33.5715 120.008 32.611V32.0074V32.0103Z" fill="#F15A24"/>
<path d="M3.81766 76.3718C4.848 77.8623 6.44318 78.1711 8.29666 78.1711C9.63639 78.1711 12.0547 77.9643 13.3433 77.6554C13.8571 75.2923 14.0132 73.442 14.0132 72.4644C14.0132 70.1523 13.1901 70.1523 11.7482 70.1523C11.2855 70.1523 10.7689 70.2033 10.153 70.4611L9.9997 70.2033C10.3091 68.353 12.2648 67.1714 14.5837 67.1714C17.9302 67.1714 21.3306 68.455 21.3306 69.8944C21.3306 71.1808 20.5075 71.9005 20.147 73.442C19.9937 74.1107 19.5793 75.3433 19.3239 76.2188C20.0959 75.961 24.5238 74.0597 24.6799 71.6937C30.2404 71.6937 32.0939 73.0821 32.0939 74.8814C32.0939 76.5787 30.5498 77.3494 26.8939 78.7888C24.7821 79.6106 20.2009 81.05 17.882 81.5657C16.4911 86.2438 11.4984 97.3994 9.02613 101.358C8.35627 102.386 7.32592 103.208 6.4006 103.208C5.67965 103.208 3.00303 102.95 3.00303 99.5075C3.00303 98.428 3.10522 96.8865 4.34276 95.7559C7.58706 92.7751 11.294 86.7595 12.3244 82.3902C12.0661 82.4412 10.6752 82.5432 9.95429 82.5432C2.69365 82.5432 3.31242 77.1454 3.36351 76.6835L3.82617 76.3747L3.81766 76.3718ZM36.1045 84.9546C35.0231 84.5947 33.479 84.3879 31.7788 84.3879C29.6159 84.3879 27.2459 84.6967 25.2391 85.5184L25.188 84.7477C27.9157 81.8179 33.1185 80.0696 37.0838 80.0696C41.049 80.0696 45.528 81.3022 45.528 84.9007C45.528 85.6715 45.3748 87.4197 43.0558 87.4197C42.9025 87.4197 42.7464 87.3687 42.542 87.3687C41.5117 87.2667 39.2977 86.2892 37.5464 86.2892C37.3392 86.2892 37.1349 86.3402 36.9787 86.3402C32.7552 86.9579 32.4458 89.6299 32.4458 92.5597C32.4458 93.9992 32.8574 96.2603 33.2179 97.6487L33.4762 98.6773C34.4554 98.9352 43.5695 101.403 43.5695 107.005C43.5695 108.855 42.0254 109.833 40.3252 109.833C38.9855 109.884 37.0298 107.056 33.8877 105.053C34.1971 107.932 33.2179 111.941 24.3081 111.941C18.7988 111.941 14.6263 109.164 14.6263 104.435C14.6263 99.295 20.1867 97.4957 24.5125 97.4957C25.4406 97.4957 26.3659 97.5977 27.1891 97.6487C27.0869 96.3623 26.9847 94.308 26.9847 92.9706C27.0869 88.0346 31.4126 86.0313 36.201 85.1047L36.0988 84.9517L36.1045 84.9546ZM27.5552 102.33C25.9061 101.61 24.5181 101.199 22.869 101.199C19.883 101.199 17.9785 102.177 17.9785 103.871C17.9785 105.772 20.1413 106.648 23.7972 106.648C26.681 106.648 27.5552 105.26 27.5552 103.46V102.33Z" fill="#F15A24"/>
<path d="M54.2504 92.5597C55.8712 90.8596 57.8751 89.4344 60.5659 89.4089C63.0637 89.4089 64.2445 91.4632 64.2445 93.5203C64.2445 94.1777 64.1905 95.4669 64.1905 96.0421C64.1905 97.5779 64.9597 97.9604 66.5805 97.9604C69.3252 97.9604 71.4143 95.9316 73.0066 92.095L73.3643 92.1772C72.402 97.8499 69.8219 101.471 65.3742 101.471C62.1327 101.471 60.5403 99.6634 60.5403 97.2775C60.5403 96.5663 60.6227 94.8379 60.6227 94.1522C60.6227 91.7947 60.4041 90.8086 59.0303 90.8086C57.1371 90.8086 54.9941 93.0301 53.9496 95.6879C53.4557 96.9489 53.0725 98.2919 52.9334 99.1958C52.6865 100.703 51.8633 101.361 50.9551 101.361C50.1035 101.361 48.8944 100.868 48.8944 99.5784C48.8944 98.5923 49.059 97.6034 49.6097 96.3425C50.4072 94.5064 51.3382 92.5314 52.4367 90.4204C55.1814 85.1586 56.5552 82.5546 56.5552 81.4013C56.5552 81.016 56.4445 80.6335 56.172 80.4408C55.7605 80.1659 55.102 80.0016 54.5513 80.0837L54.4406 79.9732C54.7983 79.2875 55.786 78.7123 56.7738 78.684C58.8345 78.7123 60.9491 79.6701 60.9491 81.3163C60.9491 82.4129 59.9329 83.0703 59.246 83.9487C57.7076 85.9236 55.2921 89.678 54.1114 92.5286L54.2476 92.5569L54.2504 92.5597Z" fill="#FBB03B"/>
<path d="M71.0566 80.88C71.3575 82.1947 72.0728 82.6339 73.4182 82.6339C73.9405 82.6339 74.8459 82.5517 75.5867 82.3874C77.9483 81.866 83.3583 80.8516 85.8561 80.4974C86.8722 80.3586 87.8061 80.0299 88.3 79.5935C91.0447 79.9789 92.5576 80.7439 92.5831 82.1975C92.5831 83.4046 90.5508 83.4046 89.2054 83.4046C85.6091 83.4046 82.9439 85.7083 81.8738 87.6266C81.2976 88.7231 80.8037 91.1911 80.8037 92.9167C80.8321 95.1921 81.9022 96.7817 84.6214 97.1387C85.2515 97.2209 86.0491 97.4674 86.5146 97.6601C87.6414 98.0454 88.0246 99.057 88.0246 100.182C88.0246 101.086 87.0908 101.579 85.9923 101.579C85.8277 101.579 85.6631 101.579 85.4985 101.55C80.2531 100.893 77.866 98.5356 77.866 93.7385C77.866 89.4882 80.7498 84.6655 84.4 82.6084V82.5262C81.6808 82.9088 78.6323 83.7305 77.0145 84.5805C76.4383 84.8809 75.723 85.2662 75.2859 85.6233C74.9566 85.8698 74.406 86.2268 73.8042 86.2268C72.4588 86.2268 70.208 84.7194 70.208 82.4157C70.208 81.8405 70.4833 81.2653 70.7842 80.8545L71.0595 80.8828L71.0566 80.88ZM86.4067 87.1024C88.5214 87.3489 90.6076 88.3916 90.6076 89.8169C90.6076 90.4204 90.3606 91.024 89.6198 91.024C89.0975 91.024 88.686 90.6953 88.5497 90.2277C88.3028 89.3493 87.6698 88.1168 86.2421 87.4056L86.4067 87.1052V87.1024ZM89.2622 84.8554C91.4023 85.0736 93.4914 86.1446 93.4914 87.5699C93.4914 88.1168 93.2445 88.7486 92.5292 88.7486C91.953 88.7486 91.567 88.3916 91.4307 87.9269C91.2122 87.0485 90.5253 85.8159 89.0975 85.1302L89.2622 84.8554Z" fill="#FBB03B"/>
<path d="M110.735 91.1883C112.903 94.0105 115.347 95.0249 115.347 97.2464C115.347 99.9042 113.039 101.743 106.835 101.743C102.029 101.715 100.025 99.6605 100.025 96.0705C100.025 95.1666 100.19 93.9595 100.19 93.3305C97.9108 93.0301 96.3468 92.0412 96.3724 90.2873C96.3724 88.9442 98.2117 86.9692 100.766 86.0653C100.63 86.0115 99.8863 85.9548 99.7217 85.9293C98.047 85.6828 97.0593 84.7506 97.0593 82.9144C97.0593 82.6141 97.0877 82.2854 97.1416 81.9284L97.4708 81.8462C97.5532 82.7784 98.6232 83.7362 100.437 83.7362C100.82 83.7362 101.232 83.7078 101.754 83.654C101.865 82.7756 101.947 81.4892 101.947 80.693C101.947 79.8146 101.317 79.432 100.602 79.432C100.383 79.432 100.136 79.4604 99.9147 79.5425L99.8608 79.5142C100.079 78.7463 100.877 78.0068 101.893 78.0068C104.118 78.0068 105.682 79.4037 105.682 80.4464C105.682 80.8035 105.135 82.5291 105.052 82.9144C105.628 82.6963 106.179 82.4752 106.508 82.2854H106.673C107.743 82.2854 109.364 83.4641 109.392 84.4502C109.392 85.6573 106.948 85.8216 104.229 86.0115C103.871 87.1619 103.406 88.862 103.159 90.2873C104.286 90.2873 105.714 89.9047 105.961 89.7404C107.689 90.0974 108.927 91.0551 108.927 92.2622C108.927 93.0018 107.882 93.3871 107.17 93.3871C105.796 93.4155 104.643 93.3871 102.833 93.441C102.804 93.8518 102.75 94.6197 102.75 95.0022C102.75 97.3314 103.216 98.3741 106.622 98.3996C111.126 98.3996 112.003 97.2747 112.003 95.1666C112.003 94.1522 111.373 92.7807 110.44 91.4122L110.74 91.194L110.735 91.1883ZM101.374 86.2268C99.6706 86.9125 98.5466 88.0091 98.5466 89.134C98.575 90.0379 99.2619 90.2022 100.633 90.2844C100.826 89.0235 101.155 87.3772 101.374 86.2268Z" fill="#FBB03B"/>
<path d="M14.6746 133.156C15.0776 131.9 17.1411 130.693 19.1053 130.693C22.4291 130.693 27.4133 132.705 27.4133 134.714C27.4133 135.116 26.9592 135.417 26.6583 135.969C26.0537 136.822 25.2476 141.9 24.9467 143.005C27.2629 142.855 30.3851 142.603 32.3465 142.35C33.6039 142.2 33.9076 141.897 34.5122 141.293C35.2161 140.591 35.7696 140.086 36.2237 140.086C37.7849 140.086 42.366 143.807 42.366 145.011C42.366 145.564 41.8636 146.068 41.0064 146.368C40.3508 146.62 40.0499 146.972 39.8995 148.831C39.1445 158.533 37.5833 172.051 29.9821 172.051C28.9744 172.051 27.717 170.796 27.717 169.79C27.717 168.886 27.5666 168.082 26.7094 166.874C25.9544 165.769 22.9826 163.304 20.7686 161.95L21.0695 161.346C22.5795 161.8 25.9033 162.803 27.0103 163.106C27.7653 163.307 28.421 163.709 29.0255 163.709C29.931 163.709 30.5867 163.409 31.4921 161.397C32.9028 158.28 34.1091 149.785 34.1602 145.515C34.1602 145.263 34.1091 145.014 33.7061 145.014C33.5045 145.014 27.3111 145.566 24.5437 145.918C21.7734 156.875 17.5953 166.172 3.49691 172.255L2.99451 171.754C12.0575 164.817 16.5876 154.716 17.9983 146.674C17.6464 146.725 13.1645 147.578 11.8049 148.332C11.2514 148.683 10.6469 148.785 10.0934 148.785C7.67788 148.785 5.00978 145.569 5.00978 142.603C5.00978 141.999 5.81589 140.29 6.92287 140.29C7.27483 142.954 8.93814 143.557 12.2591 143.557L18.654 143.257C18.9549 140.945 19.2586 138.633 19.2586 136.272C19.2586 133.708 17.6464 132.954 14.7256 133.207L14.6746 133.156ZM33.6067 131.297C38.0375 131.849 41.1086 133.96 41.1086 136.423C41.1086 137.78 40.101 138.534 38.994 138.534C38.2901 138.534 37.5833 138.182 37.132 137.026C36.5785 135.519 35.4716 133.105 33.2548 131.849L33.6067 131.297ZM39.749 128.081C44.3813 128.735 47.2509 130.996 47.2509 133.459C47.2509 134.816 46.2944 135.57 45.1874 135.57C44.4807 135.57 43.7767 135.218 43.3254 134.062C42.7719 132.555 41.6139 129.891 39.3971 128.633L39.749 128.081Z" fill="#F15A24"/>
<path d="M157.654 12.6432C157.554 12.816 157.356 12.9889 157.109 13.088C154.778 20.6875 151.134 24.3003 143.646 26.4537C143.223 25.5867 142.085 24.2521 141.341 23.4842C147.316 22.0731 151.384 18.7069 152.4 15.0205H138.043V11.5069H154.009L154.432 11.2349L157.656 12.646L157.654 12.6432ZM154.679 8.6819H140.473V5.24201H154.679V8.6819Z" fill="black"/>
<path d="M162.064 13.2127H182.768V16.9756H163.157C162.984 17.2221 162.638 17.3978 162.266 17.446L162.067 13.2127H162.064Z" fill="black"/>
<path d="M192.285 9.35061C194.144 10.144 196.202 11.1329 198.186 12.1955C199.353 10.3877 201.013 7.21981 202.177 4.34945L206.863 6.30458C206.738 6.5766 206.366 6.72678 205.847 6.72678C204.731 9.05309 203.071 12.0226 201.657 14.2016C202.824 14.9185 204.632 16.1057 206.071 17.3213L203.542 20.9595C202.475 19.9451 200.939 18.6814 199.301 17.5678C196.821 20.8349 193.548 24.1529 190.054 26.4027C189.41 25.6348 187.823 24.2493 186.881 23.6542C190.253 21.6481 193.576 18.6786 195.981 15.5617C194.048 14.4226 192.038 13.3827 190.153 12.5185L192.285 9.35061Z" fill="black"/>
<path d="M214.152 5.93623C216.607 6.65311 219.556 7.99053 221.367 9.1296L219.383 12.5695C217.623 11.4049 214.671 10.0448 212.367 9.20327L214.152 5.93623ZM212.96 22.4698C221.117 19.9933 226.794 15.1678 229.621 8.38722C230.737 9.27694 232.051 9.99666 233.166 10.6144C230.093 17.3468 224.217 22.6427 216.108 25.5895C216.057 25.8615 215.883 26.1335 215.637 26.2582L212.957 22.4726L212.96 22.4698Z" fill="black"/>
<path d="M250.87 23.6315H258.034V26.4282H240.382V23.6315H247.373V22.7418H242.266V19.9933H247.373V19.1999C245.539 19.2736 243.876 19.3246 242.539 19.3473C242.465 19.5711 242.266 19.7185 242.068 19.744L241.273 17.344C240.927 20.8349 240.132 24.5723 238.423 27.1933C237.728 26.6011 236.118 25.683 235.199 25.3373C237.68 21.6254 237.853 16.0065 237.853 12.0963V4.76881H256.796V11.4531H241.497V12.1955H257.713V14.9922H254.466C255.755 16.0066 257.094 17.1456 257.863 18.0609L254.838 19.8913C254.613 19.5938 254.318 19.2708 253.995 18.8996L251.02 19.0469L250.872 19.0724V19.9876H256.004V22.7362H250.872V23.6259L250.87 23.6315ZM241.423 14.995C241.398 15.5135 241.372 16.0349 241.324 16.5789L243.555 16.5534C243.879 16.0831 244.225 15.539 244.523 14.995H241.423ZM253.149 7.642H241.494V8.58273H253.149V7.642ZM248.539 14.995C248.216 15.4653 247.844 15.9839 247.449 16.5052L251.318 16.4542C250.972 16.1567 250.623 15.862 250.302 15.6127L251.369 14.995H248.542H248.539Z" fill="black"/>
<path d="M150.313 36.1075C150.214 36.3314 149.893 36.5297 149.519 36.5297C148.429 45.3646 145.999 49.3996 141.685 49.3996C138.684 49.3996 136.678 47.0477 136.678 42.6671C136.678 36.1585 141.934 31.6787 148.156 31.6787C155.125 31.6787 158.965 35.64 158.965 41.2589C158.965 46.8777 156.138 50.1448 149.766 51.8534C149.195 50.9382 148.378 49.6999 147.336 48.6855C152.965 47.572 154.923 44.8999 154.923 41.3354C154.923 37.3741 152.07 35.1725 148.08 35.1725C147.56 35.1725 147.089 35.2235 146.592 35.2971L150.311 36.1132L150.313 36.1075ZM145.627 35.538C142.454 36.5524 140.396 39.3491 140.396 42.517C140.396 44.3247 140.768 45.6848 141.81 45.6848C143.941 45.6848 145.306 40.8338 145.627 35.5352V35.538Z" fill="black"/>
<path d="M182.893 38.7059H176.373L176.472 48.3087C176.52 52.2444 174.091 52.2954 169.109 52.2954C168.962 51.3292 168.539 49.8189 168.141 48.8782C168.76 48.9037 169.456 48.9037 170.1 48.9037C172.555 48.9037 172.728 48.9037 172.728 48.235L172.655 41.5507C170.25 44.5203 167.1 47.1186 163.926 49C163.282 48.0848 162.215 46.8947 161.25 46.1552C164.673 44.3984 168.042 41.6754 170.497 38.7059H162.564V35.1668H172.581L172.53 30.364L177.043 30.5113C177.017 30.7834 176.844 31.0072 176.299 31.0809L176.347 35.164H182.893V38.703V38.7059Z" fill="black"/>
<path d="M208.453 36.0084C208.353 36.1812 208.154 36.3541 207.908 36.4051C206.667 39.6721 204.462 43.163 202.131 45.4156C201.362 44.6959 199.875 43.7325 198.932 43.2112C200.67 41.6527 202.131 39.4483 202.651 38.261L197.022 39.3491L199.477 51.6494L195.56 52.3181L193.179 40.1141L187.304 41.2532L186.585 37.6886L192.486 36.5751L191.297 30.6587L196.157 30.2875C196.157 30.6587 195.833 30.8825 195.461 31.0299L196.33 35.8327L204.907 34.2232L205.279 34.0249L208.453 36.0055V36.0084Z" fill="black"/>
<path d="M213.21 37.1984C215.415 37.7935 217.797 38.6832 219.409 39.5248L217.774 42.7663C216.187 41.9247 213.706 40.8848 211.575 40.2671L213.21 37.1984ZM213.53 48.4588C220.919 46.2799 226.474 42.3696 229.894 35.0676C230.637 35.7363 232.397 37.0483 233.192 37.5441C229.794 44.4749 223.621 49.2267 216.704 51.4794C216.752 51.7259 216.63 52.0234 216.281 52.1991L213.528 48.4617L213.53 48.4588ZM216.309 31.1319C218.515 31.8006 220.848 32.6903 222.582 33.5829L220.723 36.7507C218.963 35.7363 216.78 34.7701 214.598 34.0532L216.309 31.1319ZM227.441 30.3413C228.406 31.231 229.599 32.6931 230.217 33.733L228.458 35.045C227.938 34.1552 226.573 32.3956 225.781 31.6051L227.441 30.3442V30.3413ZM231.358 29.0294C232.326 29.9446 233.541 31.4067 234.16 32.3475L232.4 33.6594C231.83 32.7186 230.541 31.1092 229.721 30.2932L231.358 29.0322V29.0294Z" fill="black"/>
<path d="M246.084 30.8599C246.01 31.2056 245.687 31.3302 245.267 31.4039C245.042 32.5175 244.722 34.5236 244.449 35.9347C244.872 35.8837 245.69 35.8355 246.135 35.8355C250.401 35.8355 251.639 38.8561 251.639 42.8145V42.84C251.565 47.0478 250.623 52.2444 246.11 52.2444C245.142 52.2444 243.606 51.7259 241.67 50.2638C242.142 49.3231 242.613 48.1103 242.911 47.0223C244.446 48.0622 245.391 48.3342 245.985 48.3342C246.853 48.3342 247.2 47.4926 247.52 46.1807C247.745 45.3136 247.918 43.3585 247.918 42.6161C247.892 40.338 247.222 39.2981 245.809 39.2981C245.289 39.2981 244.543 39.3236 243.751 39.4454C242.684 43.7014 241.395 48.133 239.411 52.1424L235.914 50.4338C237.773 46.8437 238.988 43.6022 239.908 39.8648C239.212 39.9895 237.427 40.2615 236.436 40.4343L236.138 36.7224C237.154 36.6232 239.164 36.3994 240.578 36.2265C240.901 34.4188 241.174 32.4155 241.372 30.3867L246.084 30.857V30.8599ZM250.498 30.0183C251.565 30.908 252.754 32.3701 253.274 33.41L251.463 34.5973C251.017 33.5829 249.703 31.9224 248.783 31.1574L250.495 30.0183H250.498ZM254.761 44.3502C254.264 41.3807 252.854 37.989 251.117 36.3569L254.29 34.4018C256.521 36.5297 258.159 39.9215 258.729 42.9902L254.761 44.3502ZM254.463 29.0039C255.53 29.8936 256.72 31.3557 257.239 32.3956L255.428 33.5829C254.982 32.5685 253.668 30.908 252.749 30.143L254.46 29.0039H254.463Z" fill="black"/>
<path d="M63.1999 127.622C63.1999 127.474 63.7705 127.299 64.3154 127.299C65.8766 127.299 68.3829 129.129 68.3829 130.22C68.3829 130.79 67.4661 130.617 66.8955 130.79C66.0043 131.062 64.3665 131.433 63.1261 131.679C63.6456 132.025 64.1678 132.374 64.1678 132.719C64.1678 132.844 64.0202 133.065 63.8953 133.215C63.7478 133.388 63.7478 133.66 63.7222 134.13C63.6967 134.773 63.6484 135.391 63.6229 136.012C66.87 135.813 67.8634 135.714 68.8796 134.825C70.2931 134.972 72.4248 135.765 72.3992 136.904C72.3992 137.647 71.8287 137.72 70.8636 137.72C70.1682 137.72 68.9789 137.596 68.0621 137.573C67.5654 137.548 66.9949 137.548 66.3761 137.548C65.4082 137.548 64.3665 137.573 63.5008 137.647C62.9303 143.093 61.1705 146.235 54.2788 148.808L54.0319 148.51C58.2725 145.714 60.1061 142.347 60.4524 137.89C59.4589 137.964 56.1124 138.46 55.3688 138.806C54.8494 139.029 54.574 139.375 54.1284 139.375C52.8142 139.375 51.1027 137.644 51.1027 136.233C51.1027 135.788 51.4745 135.145 51.747 134.969L51.8208 134.995C52.0195 136.578 53.6061 136.678 54.9203 136.678C55.6157 136.678 58.3917 136.431 60.5744 136.233C60.6 135.663 60.6255 134.969 60.6255 134.45C60.6255 133.113 60.6 132.447 60.2537 132.198C57.6253 132.569 54.5996 132.841 52.0478 132.841L51.974 132.518C55.9904 131.75 60.8015 130.265 63.0807 129.276C63.9493 128.905 64.0969 128.707 64.0969 128.336C64.0969 127.99 63.6512 127.741 63.2283 127.642L63.2028 127.616L63.1999 127.622Z" fill="#FBB03B"/>
<path d="M75.9898 129.701C76.2623 130.889 76.9066 131.285 78.1214 131.285C78.5926 131.285 79.4101 131.212 80.0799 131.062C82.2116 130.591 87.0965 129.676 89.353 129.353C90.2698 129.228 91.1128 128.934 91.5584 128.537C94.0392 128.883 95.4016 129.577 95.4272 130.889C95.4272 131.977 93.5936 131.977 92.3759 131.977C89.1288 131.977 86.7218 134.057 85.7567 135.788C85.2373 136.777 84.7888 139.004 84.7888 140.565C84.8144 142.62 85.7794 144.056 88.2347 144.376C88.8052 144.45 89.5233 144.674 89.9462 144.847C90.9624 145.192 91.3115 146.11 91.3115 147.125C91.3115 147.941 90.4685 148.389 89.4779 148.389C89.3303 148.389 89.1799 148.389 89.0323 148.363C84.2978 147.771 82.1406 145.64 82.1406 141.308C82.1406 137.471 84.7434 133.116 88.0417 131.26V131.186C85.5864 131.532 82.836 132.274 81.3714 133.042C80.852 133.314 80.2048 133.66 79.8103 133.983C79.5123 134.207 79.0155 134.527 78.4706 134.527C77.2557 134.527 75.2234 133.167 75.2234 131.087C75.2234 130.569 75.4704 130.047 75.7429 129.676L75.9898 129.701ZM89.8497 135.32C91.76 135.544 93.6418 136.485 93.6418 137.771C93.6418 138.315 93.4176 138.859 92.7506 138.859C92.2794 138.859 91.9076 138.562 91.7827 138.143C91.5584 137.349 90.9879 136.238 89.6993 135.592L89.8469 135.32H89.8497ZM92.4298 133.289C94.3628 133.487 96.2475 134.453 96.2475 135.74C96.2475 136.236 96.0233 136.805 95.3789 136.805C94.8595 136.805 94.5104 136.482 94.3883 136.063C94.1896 135.269 93.5709 134.156 92.2794 133.538L92.427 133.292L92.4298 133.289Z" fill="#FBB03B"/>
<path d="M59.0332 156.271L61.8347 158.278C61.7098 158.425 61.4628 158.601 61.0655 158.674V170.703C61.0655 172.609 60.6198 173.97 57.6196 174.216C57.6196 171.915 57.0009 171.544 55.5107 171.32V171H57.9148C58.1135 171 58.1873 170.901 58.1873 170.654V166.472H54.0972C53.7253 169.195 52.7319 172.091 50.007 174.193L49.7601 173.995C51.4206 170.629 51.4716 166.396 51.4716 162.732V159.043C51.026 159.465 50.5548 159.859 50.0837 160.207L49.7856 160.009C51.0487 157.904 52.2891 154.166 52.959 150.627L56.9498 151.865C56.8504 152.163 56.6035 152.361 55.9592 152.361C55.786 152.758 55.5873 153.155 55.4142 153.548H56.4814L58.017 152.015L60.6965 154.515C60.4978 154.713 60.2253 154.787 59.7286 154.838C58.9338 155.679 57.7701 156.844 56.629 157.66H57.9688L59.036 156.274L59.0332 156.271ZM56.0074 157.657C56.3055 156.592 56.5779 154.985 56.7255 153.945H55.19C54.5939 155.11 53.9269 156.147 53.2059 157.113L54.7415 157.657H56.0046H56.0074ZM54.2987 162.236C54.2987 163.423 54.2987 164.636 54.1511 166.073H55.0679V162.236H54.2987ZM54.2987 158.054V161.839H55.0679V158.054H54.2987ZM58.1901 158.054H57.3954V161.839H58.1901V158.054ZM57.3954 166.073H58.1901V162.236H57.3954V166.073ZM71.2071 165.999L73.8837 168.053C73.685 168.325 73.3387 168.399 72.6944 168.399H69.1237V173.275C69.1237 173.301 68.5049 174.165 65.7772 174.165V168.399H61.2414L61.1421 168.002H65.7772V163.942H64.2416C63.5235 165.203 62.655 166.268 61.7126 167.061L61.3663 166.889C61.9113 165.33 62.3342 162.706 62.5074 160.329L65.78 161.122V160.23L68.1615 160.428C68.1615 158.844 68.0139 158.076 66.4017 157.657V157.359H68.187C68.5106 157.359 68.6326 157.359 68.7575 157.26C69.0556 156.988 69.2032 155.776 69.3025 153.126H67.4434C66.799 156.713 64.9399 159.289 61.1705 160.748L61.0711 160.451C63.1034 158.717 63.6995 156.195 63.8726 153.123H61.3181L61.1932 152.727H69.0783L70.2931 151.267L73.3671 153.469C73.2195 153.667 72.8959 153.84 72.4758 153.914C72.2516 159.011 71.8315 160.323 68.4084 160.448L69.9695 160.573C69.9184 160.896 69.7708 161.069 69.1265 161.168V163.545H69.4246L70.7898 161.715L73.3189 163.596C73.1457 163.868 72.7994 163.942 72.1778 163.942H69.1265V168.002H69.7708L71.2099 165.996L71.2071 165.999ZM65.306 161.766C65.0591 162.383 64.7611 162.978 64.463 163.548H65.7772V161.692L65.306 161.766Z" fill="#FBB03B"/>
<path d="M74.6501 157.51C78.1952 157.708 79.3845 158.921 79.3845 159.986C79.3845 160.952 78.4677 161.794 77.4771 161.794C77.0059 161.794 76.5092 161.621 76.0891 161.151C75.9642 159.912 75.371 158.476 74.5025 157.66L74.6501 157.512V157.51ZM76.2367 166.594C76.6568 166.594 76.7562 166.594 77.0542 166.075C77.4516 165.399 79.2776 161.43 82.5323 154.169L82.9041 154.268C81.7376 158.031 79.5577 165.628 79.5577 167.387V167.512C79.6088 168.923 80.7243 169.64 80.7243 171.768C80.7243 173.278 79.6088 174.145 78.269 174.145C77.6247 174.145 76.8811 173.848 76.6086 172.859C76.8328 171.745 76.9548 170.632 76.9548 169.716C76.9548 168.552 76.7562 167.688 76.4354 167.464C76.0636 167.217 75.618 167.067 75.0957 167.042V166.597C75.9642 166.597 76.2367 166.571 76.2367 166.571V166.597V166.594ZM75.8422 151.197C79.7337 151.197 81.0251 152.457 81.0251 153.622C81.0251 154.588 80.1339 155.478 79.1404 155.478C78.6948 155.478 78.2492 155.305 77.8262 154.934C77.48 153.648 76.6852 152.185 75.7173 151.344L75.8422 151.197ZM98.3536 162.684C98.1549 162.956 97.8342 163.029 97.1643 163.029H90.3209C91.5357 166.965 94.587 169.614 98.2798 170.53L98.2287 170.802C97.0139 171.198 96.046 172.36 95.6741 174.12C92.1772 172.04 90.6899 168.798 89.9718 163.032H89.5744C88.7058 167.637 86.35 171.893 80.4745 174.145L80.3013 173.921C84.1928 171.026 85.7312 167.115 86.3273 163.029H81.2948L81.1954 162.633H86.3784C86.6026 160.899 86.6508 159.142 86.6508 157.436V155.999H82.6572L82.5323 155.603H86.648V150.627L91.0873 150.998C91.0617 151.344 90.8148 151.517 90.0711 151.619V155.603H91.6067L92.8698 153.945L96.2674 156.271C96.1198 156.47 95.7962 156.668 95.2768 156.767V161.791L96.0942 160.355L98.3507 162.681L98.3536 162.684ZM90.074 155.999V157.436C90.0484 159.145 89.9491 160.927 89.651 162.633H91.8565V155.999H90.0711H90.074Z" fill="#FBB03B"/>
<path d="M108.294 152.585C108.739 151.817 109.582 151.199 110.65 151.199C112.211 151.199 114.345 152.066 114.32 153.427C114.294 153.699 114.195 153.798 114.047 154.22C113.948 154.517 113.922 155.062 113.922 155.657C117.22 155.336 117.814 155.26 118.336 154.492C120.593 154.988 122.105 155.73 122.105 156.991C122.105 157.51 121.461 157.682 121.064 157.682C120.368 157.682 119.525 157.51 118.66 157.385C117.865 157.26 116.8 157.212 115.733 157.212C115.089 157.212 114.47 157.238 113.922 157.263C113.922 159.266 113.948 160.876 113.996 161.868C114.294 162.312 114.765 163.154 114.765 164.863C114.765 169.838 112.089 172.337 105.915 173.502L105.79 173.205C108.938 171.941 110.698 169.32 111.07 167.461C110.598 167.906 109.855 168.031 109.185 168.031C106.954 168.031 104.995 166.719 104.995 163.896C104.995 161.842 106.755 159.813 109.435 159.813C109.954 159.813 110.698 159.912 111.047 160.06C111.047 159.292 111.021 158.229 110.973 157.461C109.71 157.586 107.652 157.957 106.684 158.156C105.716 158.354 105.146 158.552 104.652 158.725C104.181 158.898 103.783 159.269 103.238 159.269C101.924 159.269 100.139 157.711 100.139 156.3C100.139 155.903 100.312 155.186 100.735 154.84L100.934 154.866C100.908 155.954 102.299 156.696 103.636 156.696C104.604 156.696 108.348 156.201 110.851 155.954C110.752 152.985 110.232 152.662 109.14 152.662C108.893 152.662 108.643 152.687 108.444 152.735L108.297 152.588L108.294 152.585ZM111.22 163.698C111.22 162.361 110.624 161.372 109.483 161.372C108.592 161.372 107.723 162.188 107.723 163.772C107.723 165.231 108.566 165.826 109.435 165.826C110.476 165.826 111.22 164.86 111.22 163.698Z" fill="#FBB03B"/>
<path d="M132.639 162.409C134.498 161.443 136.902 160.876 138.514 160.876C143.076 160.876 144.912 163.426 144.912 166.52C144.912 170.382 141.639 172.881 136.681 172.881C133.184 172.881 131.35 171.445 131.35 169.269C131.35 167.832 132.962 166.075 135.392 166.075C137.35 166.075 139.607 167.214 139.607 169.019C139.607 169.192 139.556 169.589 139.482 169.787C140.87 169.218 141.614 167.659 141.614 166.024C141.614 163.253 140.226 162.089 138.142 162.089C136.383 162.089 132.639 162.956 129.985 166.668C129.488 167.362 129.068 168.252 128.199 168.252C127.158 168.252 126.638 166.965 126.638 166.594C126.638 165.381 127.183 164.812 128.001 164.044C130.11 162.063 134.447 157.756 137.447 154.812C137.495 154.761 137.546 154.687 137.546 154.639C137.546 154.566 137.495 154.515 137.399 154.515C137.027 154.515 134.347 155.257 132.86 156.345C132.29 156.767 132.065 156.988 131.398 156.988C130.183 156.988 128.795 155.577 128.795 154.067C128.795 153.497 129.167 152.681 129.639 152.409L129.763 152.435C129.789 153.523 130.433 153.894 131.475 153.894C133.235 153.894 136.408 153.152 137.251 152.829C137.822 152.582 138.069 152.112 138.491 152.112C139.806 152.112 141.665 153.648 141.665 154.537C141.665 155.427 140.623 155.651 139.658 156.22C137.155 157.705 134.552 160.105 132.417 162.31L132.642 162.409H132.639ZM136.062 170.479C136.309 170.479 136.706 170.453 137.152 170.354C137.052 170.255 136.905 170.034 136.879 169.835C136.754 168.847 135.713 167.756 134.424 167.756C133.334 167.756 132.937 168.252 132.911 168.895C132.911 170.059 134.174 170.479 136.059 170.479H136.062Z" fill="#FBB03B"/>
<path d="M167.455 99.3262H157.529C161.361 100.709 165.192 102.137 167.684 103.197L162.005 107.852C158.959 106.285 153.603 103.888 148.616 102.182L151.432 99.3262H140.214L144.137 102.137C143.953 102.321 143.629 102.415 143.26 102.415C140.26 104.395 134.396 106.702 129.502 107.807C128.532 106.379 126.687 104.211 125.301 102.877C128.855 102.14 132.965 100.757 135.92 99.329H125.256V93.6138H135.551V91.126H128.117V85.4108H135.551V83.1071H130.01V65.4118H162.74V83.1071H157.847C157.662 83.246 157.338 83.3366 156.924 83.3848V85.4136H164.679V91.1288H156.924V93.6166H167.449V99.3318L167.455 99.3262ZM136.479 70.2939V71.9544H142.803V70.2939H136.479ZM136.479 76.5135V78.2193H142.803V76.5135H136.479ZM143.266 83.1043C143.081 83.1978 142.758 83.2885 142.389 83.382V85.4108H150.052V83.1071H143.266V83.1043ZM142.389 91.1231V93.611H150.052V91.1231H142.389ZM155.914 71.9515V70.2911H149.357V71.9515H155.914ZM155.914 78.2193V76.5135H149.357V78.2193H155.914Z" fill="white"/>
<path d="M207.479 95.1807H200.692V93.4296H195.938V95.1354H189.151V81.3107H184.164V98.5923H212.557V105.09H184.164V107.716H177.239V81.3107H170.775V74.8134H177.239V65.4118L185.549 65.8736C185.504 66.3808 185.135 66.7039 184.164 66.8427V74.8162H189.151V64.4484L197.323 64.8621C197.278 65.4146 196.909 65.6923 195.938 65.8765V74.8162H200.692V64.8621L208.864 65.2758C208.819 65.8283 208.45 66.106 207.479 66.2902V74.8162H214.22V81.3135H207.479V95.1864V95.1807ZM195.938 87.2072H200.692V81.3078H195.938V87.2072Z" fill="white"/>
<path d="M255.902 85.731H249.025C252.07 88.403 256.18 90.5224 260.75 91.7692C259.274 93.0584 257.287 95.6851 256.319 97.3909C253.504 96.4218 250.918 95.0419 248.61 93.3361V107.807H241.963V90.3411L245.286 90.5253C243.811 89.0518 242.471 87.4367 241.27 85.7338H236.099C234.943 87.3942 233.558 88.913 232.082 90.3411L237.021 90.6188C236.976 91.126 236.607 91.449 235.681 91.5878V93.7526C235.681 98.4081 234.296 104.676 225.017 108.223C224.186 106.702 222.063 104.259 220.678 103.109C229.173 100.253 229.173 95.5973 229.173 92.8318C226.632 94.7217 223.817 96.334 220.817 97.4391C219.846 95.8721 217.907 93.3843 216.477 92.0922C220.862 90.7548 225.063 88.4511 228.111 85.7338H221.878V65.3636H255.902V85.7338V85.731ZM228.389 70.7076V73.0566H235.222V70.7076H228.389ZM228.389 77.9898V80.3869H235.222V77.9898H228.389ZM249.07 73.0595V70.7105H241.775V73.0595H249.07ZM249.07 80.3869V77.9898H241.775V80.3869H249.07Z" fill="white"/>
<path d="M162.3 139.364V136.859C161.5 137.55 160.699 138.245 159.896 138.831C158.454 137.446 155.732 135.207 153.969 134.088C158.295 131.317 162.459 126.358 164.701 121.722L173.191 124.655C172.978 125.08 172.444 125.349 171.644 125.242C171.323 125.828 170.949 126.468 170.577 127.055H201.867V133.824H197.116V139.367H203.792V146.244H197.116V151.735H202.989V158.612H156.107V151.735H162.3V146.244H155.198V139.367H162.3V139.364ZM167.852 160.899C166.731 165.055 164.542 169.481 162.084 172.411L154.557 169.427C156.799 167.189 159.095 162.978 160.271 159.088L167.852 160.901V160.899ZM169.135 133.821V139.364H171.752V133.821H169.135ZM169.135 146.241V151.732H171.752V146.241H169.135ZM171.003 171.774C171.003 169.107 170.628 164.63 170.04 161.219L177.25 160.366C177.945 163.67 178.584 167.988 178.638 170.654L171.003 171.774ZM180.826 133.821H178.155V139.364H180.826V133.821ZM180.826 146.241H178.155V151.732H180.826V146.241ZM183.018 171.827C182.751 169.161 181.63 164.792 180.508 161.431L187.823 160.204C189.103 163.403 190.386 167.614 190.812 170.331L183.015 171.825L183.018 171.827ZM190.011 139.364V133.821H187.235V139.364H190.011ZM190.011 151.732V146.241H187.235V151.732H190.011ZM197.008 172.36C195.941 169.427 193.216 164.684 190.974 161.168L198.45 158.875C200.746 162.179 203.684 166.713 205.018 169.75L197.008 172.363V172.36Z" fill="white"/>
<path d="M233.851 126.891C233.692 127.37 233.476 127.851 233.209 128.169C232.463 136.057 231.18 143.254 229.096 149.598C231.767 152.37 234.01 155.141 235.503 157.595L229.522 163.565C228.614 161.859 227.28 159.995 225.73 158.023C222.9 163.78 219.216 168.631 214.569 172.414C213.289 170.442 210.831 167.455 208.963 166.07C213.502 162.817 217.186 157.648 219.911 151.412C216.707 148.108 213.289 144.909 210.033 142.189L215.267 137.125C217.672 139.044 220.235 141.177 222.69 143.416C223.652 140.058 224.399 136.539 224.932 132.915H210.996V125.559H227.816L229.15 125.293L233.848 126.891H233.851ZM254.622 125.293L259.32 126.944C259.212 127.423 258.945 127.851 258.678 128.222C257.611 139.684 255.207 148.958 251.043 156.368C253.66 160.153 256.969 163.299 261.082 165.429C259.215 167.027 256.703 170.227 255.476 172.357C251.633 170.011 248.483 167.081 245.919 163.616C242.769 167.135 238.977 170.011 234.546 172.357C233.425 170.227 231.129 166.974 229.366 165.376C234.171 163.245 238.176 160.046 241.381 155.835C238.605 149.652 236.788 142.401 235.346 134.246L242.823 133.02C243.623 138.029 244.744 142.826 246.402 147.145C248.165 142.934 249.445 138.191 250.245 132.912H234.387V125.556H253.237L254.625 125.29L254.622 125.293Z" fill="white"/>
</g>
<defs>
<clipPath id="clip0_1_140">
<rect width="277" height="183" fill="white"/>
</clipPath>
</defs>
</svg>
