<svg width="181" height="40" viewBox="0 0 181 40" fill="none" xmlns="http://www.w3.org/2000/svg">
<path d="M75.8566 10.5119C76.5811 11.5497 77.6971 11.765 78.9894 11.765C80.2817 11.765 81.6131 11.628 82.5138 11.4126C82.8662 9.7679 82.9837 8.45605 82.9837 7.77076C82.9837 6.14564 82.4159 6.14563 81.3977 6.14563C80.3796 6.14563 80.7124 6.18479 80.2817 6.36101L80.1642 6.18479C80.3796 4.89253 81.7501 4.07018 83.3557 4.07018C85.6857 4.07018 88.0744 4.97085 88.0744 5.96941C88.0744 6.96798 87.5066 7.37916 87.2521 8.45605C87.1346 8.92597 86.8605 9.78748 86.6843 10.3945C87.2325 10.2182 90.3261 8.88681 90.424 7.22252C94.3008 7.22252 95.6126 8.20151 95.6126 9.45462C95.6126 10.7077 94.5358 11.1776 91.9708 12.1958C90.5023 12.7636 87.2912 13.7818 85.6857 14.1342C84.7067 17.404 81.2215 25.2164 79.4985 27.9771C79.0286 28.7016 78.3041 29.2694 77.658 29.2694C77.0118 29.2694 75.2888 29.0932 75.2888 26.6848C75.2888 24.2765 75.3671 24.8443 76.2286 24.0611C78.4999 21.9661 81.0844 17.776 81.8089 14.702C81.6327 14.7412 80.6537 14.8195 80.1446 14.8195C75.0734 14.8195 75.5042 11.0406 75.5434 10.7273L75.8762 10.5119H75.8566ZM98.4126 16.5229C97.6489 16.2684 96.5721 16.1313 95.3973 16.1313C94.2225 16.1313 92.2253 16.3467 90.8352 16.9145L90.796 16.3663C92.6952 14.3104 96.3371 13.0965 99.0978 13.0965C101.859 13.0965 104.991 13.958 104.991 16.4838C104.991 19.0096 104.874 18.246 103.268 18.246C101.663 18.246 103.053 18.2068 102.916 18.2068C102.191 18.1285 100.645 17.4432 99.4307 17.4432C98.2168 17.4432 99.137 17.4823 99.0391 17.4823C96.0826 17.9131 95.8672 19.7928 95.8672 21.8291C95.8672 23.8654 96.1609 24.4136 96.4154 25.3926L96.5916 26.117C97.2769 26.2932 103.64 28.0163 103.64 31.9518C103.64 35.8873 102.563 33.9294 101.369 33.9294C100.429 33.9685 99.0587 31.991 96.8657 30.5812C97.0811 32.5979 96.3958 35.3979 90.1695 35.3979C83.9431 35.3979 83.4144 33.4595 83.4144 30.1505C83.4144 26.8415 87.2912 25.2947 90.3261 25.2947C93.361 25.2947 91.6184 25.373 92.2058 25.4122C92.1274 24.5115 92.0687 23.0822 92.0687 22.1423C92.147 18.6963 95.1623 17.2865 98.5105 16.6404L98.4321 16.5229H98.4126ZM92.4407 28.682C91.2855 28.1729 90.3261 27.8988 89.1709 27.8988C87.0759 27.8988 85.7444 28.5841 85.7444 29.7785C85.7444 30.9728 87.2521 31.7168 89.817 31.7168C92.382 31.7168 92.4407 30.7379 92.4407 29.4848V28.7016V28.682Z" fill="black"/>
<path d="M119.931 4.65757C120.283 3.54152 122.104 2.48421 123.847 2.48421C126.784 2.48421 131.189 4.26598 131.189 6.04774C131.189 7.8295 130.797 6.67429 130.523 7.16379C129.995 7.9274 129.27 12.4112 129.016 13.4097C131.072 13.2727 133.832 13.0573 135.555 12.8223C136.671 12.6853 136.945 12.4308 137.474 11.8825C138.101 11.256 138.59 10.8056 138.982 10.8056C140.372 10.8056 144.425 14.095 144.425 15.1719C144.425 16.2488 143.975 16.1118 143.231 16.3663C142.643 16.5817 142.389 16.8949 142.252 18.5396C141.586 27.1352 140.196 39.118 133.48 39.118C126.764 39.118 131.483 38.002 131.483 37.1209C131.483 36.2398 131.346 35.6132 130.582 34.5363C129.916 33.5574 127.293 31.3644 125.335 30.17L125.609 29.6414C126.94 30.033 129.877 30.9337 130.856 31.2078C131.522 31.384 132.109 31.7364 132.638 31.7364C133.441 31.7364 134.028 31.4623 134.811 29.6806C136.064 26.9198 137.122 19.3816 137.18 15.6027C137.18 15.3873 137.141 15.1523 136.789 15.1523C136.436 15.1523 131.13 15.6418 128.683 15.9551C126.235 25.6667 122.535 33.9098 110.062 39.2942L109.612 38.8439C117.64 32.6958 121.634 23.7479 122.887 16.6208C122.574 16.66 118.619 17.4236 117.405 18.0893C116.915 18.4026 116.387 18.4809 115.897 18.4809C113.763 18.4809 111.394 15.6223 111.394 12.9986C111.394 10.3749 112.099 10.9427 113.078 10.9427C113.391 13.3118 114.859 13.8405 117.796 13.8405L123.455 13.5664C123.729 11.5105 123.984 9.4742 123.984 7.37916C123.984 5.28413 122.554 4.44219 119.97 4.65757L119.931 4.61841V4.65757Z" fill="black"/>
<path d="M10.1467 32.2259C10.0096 31.4232 9.77469 31.1295 8.12998 29.1519L8.42368 28.7211C10.2054 29.5239 11.5369 29.9938 12.555 29.9938C13.5732 29.9938 14.2389 29.6218 14.7871 29.054C16.8038 26.7827 17.6653 21.2417 17.6653 17.8544C17.6653 14.4671 17.0388 15.2894 15.5116 15.2894C13.9843 15.2894 14.1606 15.4656 13.2403 15.7202L10.4208 22.3969C8.93276 25.8625 6.40696 31.1686 5.19301 33.342C4.27276 34.9867 3.58747 35.3783 2.37352 35.3783C1.15958 35.3783 0.219745 34.321 0.219745 32.6371C0.219745 30.9532 0.395963 30.8553 1.15958 29.8959C2.84344 27.8596 5.03638 24.5311 6.68108 20.9871C7.22931 19.8515 7.69923 18.7159 8.14956 17.6194L6.13284 18.5396C5.11469 19.0096 4.35108 19.4207 3.29377 19.4207C2.23646 19.4207 0.298065 17.3061 0.0435277 15.6223C-0.132691 14.4083 0.258905 13.6447 0.630922 12.8811L1.0421 12.7636C1.84487 14.0363 2.3931 14.6237 3.27419 14.6237C4.50772 14.6237 6.8573 14.1146 9.65721 13.6055C10.5383 11.0797 10.9691 9.14135 10.9691 8.33857C10.9691 7.5358 10.7928 7.41832 10.4208 7.16378C9.79427 6.73303 8.81528 6.40017 7.75797 6.14564V5.71488C8.5999 5.20581 9.73553 4.54009 11.5564 4.54009C13.3774 4.54009 17.078 6.10648 17.078 7.57496C17.078 9.04345 15.864 9.33714 15.2962 10.7077L14.4151 12.8223C15.2179 12.744 15.9815 12.6853 16.608 12.6853C19.6429 12.6853 21.7184 14.5845 21.7184 19.734C21.7184 24.8835 20.7002 29.8568 17.7437 32.9112C16.5297 34.1447 14.6696 34.9867 12.8096 34.9867C10.9495 34.9867 10.5775 34.3601 10.1467 32.1672V32.2259ZM27.3769 25.001C26.5742 24.629 24.8511 24.1982 23.5784 24.0807L23.461 23.5325C25.1448 23.0626 25.791 22.8472 26.535 22.5143C27.3769 22.1423 27.8077 21.7116 27.8077 20.6934C27.8077 19.6753 27.5531 17.8152 26.6329 16.2292C25.7126 14.6628 24.44 13.5272 22.6974 12.979L22.8148 12.4307C24.8903 12.3916 27.7098 13.0573 29.7069 14.8391C32.1152 16.9537 33.0355 19.6165 33.0355 22.4752C33.0355 25.3338 32.0565 26.7827 30.1964 26.8219C28.8063 26.8611 28.6692 25.5884 27.3769 25.001ZM27.4552 11.0797C26.7895 10.0616 25.9672 8.67143 24.1658 7.06589L24.4595 6.63513C26.5742 7.06589 28.4734 7.65328 29.7265 8.78891C30.451 9.45462 30.6663 10.0616 30.6663 10.7665C30.6663 11.4713 30.0006 12.2937 29.0999 12.2937C28.1993 12.2937 27.9643 11.9217 27.4552 11.0797ZM30.9209 8.04488C30.3335 7.2421 29.6482 6.10648 27.5923 4.46177L27.8468 4.0506C30.0398 4.3443 31.8215 4.89253 32.918 5.65614C33.8383 6.32185 34.1515 7.04631 34.1515 7.9274C34.1515 8.80849 33.6425 9.39588 32.7614 9.39588C31.8803 9.39588 31.5474 8.96513 30.9013 8.04488H30.9209Z" fill="black"/>
<path d="M53.418 30.0721C53.3788 27.331 53.8487 25.4317 53.8487 22.9843C53.8487 20.5368 53.3397 20.2822 51.4404 20.2822C48.7384 20.2822 46.4672 23.415 45.3707 26.1562C44.5679 28.1337 43.9805 30.3854 43.3344 32.3238C42.9036 33.5965 42.1009 34.8888 40.3778 34.8888C38.6548 34.8888 37.7542 33.107 37.7542 31.5994C37.7542 29.4064 40.0254 26.5282 42.0617 22.9843C44.0784 19.5186 49.6195 10.2378 50.5593 8.26025C50.853 7.6337 50.7356 7.12462 50.3831 6.77218C49.7957 6.22395 48.8167 5.71488 48.1119 5.42118V4.99042C49.0517 4.55967 50.5593 4.30513 51.4404 4.40303C54.9452 4.8142 57.0598 7.47706 57.0598 9.0826C57.0598 10.6881 55.8263 10.5119 54.769 11.5301C52.7327 13.4685 49.7957 16.9733 48.3468 19.3424C48.2293 19.5186 48.2685 19.597 48.4839 19.4795C50.2069 18.7159 51.8124 18.4613 52.8306 18.4613C56.0025 18.4613 57.8234 20.0669 58.1171 22.7689C58.2934 24.5311 58.2542 25.8821 58.2542 28.0554C58.2542 30.2288 59.3115 30.17 60.4471 30.17C64.2456 30.17 67.7112 25.7059 69.1797 21.9465L69.6496 22.0248C69.2385 30.8945 64.8722 35.065 59.057 35.065C53.2418 35.065 53.4767 32.9504 53.3984 30.0721H53.418Z" fill="black"/>
<path d="M178.827 25.2359C181.548 18.4026 180.589 9.80705 178.925 7.5358C177.28 5.28412 172.424 5.85194 166.805 8.59311C167.059 9.16092 167.294 9.72874 167.471 10.2966C169.076 9.51336 170.642 8.90638 172.091 8.51479C174.245 7.92739 176.712 7.75118 177.397 8.67143C178.083 9.59168 177.163 11.9021 175.949 13.7622C174.069 16.6796 170.956 19.8123 167.196 22.5731C163.437 25.3338 159.502 27.3506 156.153 28.2708C154.372 28.7603 152.355 28.9757 151.337 28.5058C151.161 28.3491 151.024 28.2121 150.926 28.075C150.26 27.1548 151.161 24.8443 152.375 22.9843C153.667 20.9675 155.566 18.8529 157.837 16.8166C157.72 16.3271 157.544 15.8768 157.348 15.4265L157.289 15.309C157.25 15.2111 157.191 15.0936 157.152 14.9761C150.769 20.4389 147.362 26.4499 149.379 29.1911C149.633 29.5239 149.947 29.798 150.338 30.0134C153.06 32.2063 159.932 34.83 166.374 34.3601L168.469 37.2775L168.998 37.2188C171.739 36.8663 174.128 35.9657 176.086 34.5363C178.044 33.107 179.61 31.1099 180.765 28.5841L181 28.0946L178.846 25.2164L178.827 25.2359ZM159.913 32.0889C157.955 31.6777 156.173 31.0903 154.724 30.4442C158.425 29.8568 163.398 27.6051 168.273 24.0416C173.266 20.3801 176.986 16.1901 178.592 12.7832C178.768 14.4083 178.807 16.3467 178.592 18.4026C178.279 21.5354 177.123 27.2527 172.953 30.3071C168.782 33.3616 162.987 32.735 159.913 32.0889ZM174.989 33.0874C173.423 34.2426 171.504 35.0063 169.291 35.3587L168.41 34.1252C170.427 33.7531 172.365 33.0091 174.03 31.7756C175.694 30.5421 176.986 28.9365 177.965 27.1156L178.886 28.3295C177.887 30.3267 176.575 31.9322 175.009 33.0874H174.989Z" fill="black"/>
<path d="M162.458 20.0081C162.047 19.597 162.086 18.99 162.027 18.4417C161.969 17.7956 161.89 17.1299 161.773 16.4838C161.499 15.1719 161.029 13.8992 160.383 12.7244C159.834 11.7259 159.227 10.7469 158.013 10.5707C156.604 10.3749 155.057 10.6098 153.608 10.5707C152.433 10.5511 151.004 10.649 149.907 10.1008C148.791 9.53294 148.87 8.16235 148.341 7.18336C147.323 5.2058 145.012 4.59883 142.976 4.22681C141.743 4.01143 141.214 5.8911 142.447 6.10647C143.466 6.28269 144.542 6.47849 145.443 6.98756C146.52 7.59454 146.696 8.47563 147.068 9.5721C147.851 11.8042 149.907 12.3524 152.061 12.4699C153.432 12.5482 154.802 12.5482 156.173 12.5286C156.819 12.5286 157.641 12.3133 158.111 12.8223C158.542 13.2923 158.855 14.0363 159.11 14.6237C159.639 15.8181 159.952 17.1103 160.05 18.4222C160.128 19.5186 160.226 20.5564 161.048 21.3591C161.949 22.2402 163.339 20.8501 162.438 19.969L162.458 20.0081Z" fill="black"/>
<path d="M166.667 15.7985C166.256 15.3873 166.295 14.7803 166.237 14.2321C166.178 13.586 166.1 12.9202 165.982 12.2741C165.708 10.9623 165.238 9.68958 164.592 8.51479C164.044 7.51622 163.437 6.53723 162.223 6.36101C160.813 6.16521 159.266 6.40017 157.817 6.36101C156.643 6.34143 155.213 6.43933 154.117 5.8911C153.001 5.32328 153.079 3.9527 152.55 2.97371C151.532 0.996147 149.222 0.389172 147.186 0.0171558C145.952 -0.198222 145.423 1.68144 146.657 1.89682C147.675 2.07304 148.752 2.26883 149.653 2.77791C150.73 3.38488 150.906 4.26597 151.278 5.36244C152.061 7.59454 154.117 8.14277 156.271 8.26025C157.641 8.33857 159.012 8.33857 160.382 8.31899C161.028 8.31899 161.851 8.10361 162.321 8.61269C162.752 9.0826 163.065 9.82664 163.319 10.414C163.848 11.6084 164.161 12.9007 164.259 14.2125C164.337 15.309 164.435 16.3467 165.258 17.1495C166.158 18.0306 167.549 16.6404 166.648 15.7593L166.667 15.7985Z" fill="black"/>
</svg>
